HIERARCHY
ROOT Hips
{
	OFFSET 0.00000 0.00000 0.00000
	CHANNELS 6 Xposition Yposition Zposition Zrotation Yrotation Xrotation 
	JOINT LHipJoint
	{
		OFFSET 0 0 0
		CHANNELS 3 Zrotation Yrotation Xrotation
		JOINT LeftHip
		{
			OFFSET 1.58895 -1.83665 0.71753
			CHANNELS 3 Zrotation Yrotation Xrotation
			JOINT LeftKnee
			{
				OFFSET 2.50528 -6.88321 0.00000
				CHANNELS 3 Zrotation Yrotation Xrotation
				JOINT LeftAnkle
				{
					OFFSET 2.63244 -7.23257 0.00000
					CHANNELS 3 Zrotation Yrotation Xrotation
					JOINT LeftToe
					{
						OFFSET 0.23691 -0.65090 1.72750
						CHANNELS 3 Zrotation Yrotation Xrotation
						End Site
						{
							OFFSET 0.00000 -0.00000 0.92561
						}
					}
				}
			}
		}
	}
	JOINT RHipJoint
	{
		OFFSET 0 0 0
		CHANNELS 3 Zrotation Yrotation Xrotation
		JOINT RightHip
		{
			OFFSET -1.51435 -1.83665 0.71753
			CHANNELS 3 Zrotation Yrotation Xrotation
			JOINT RightKnee
			{
				OFFSET -2.54551 -6.99375 0.00000
				CHANNELS 3 Zrotation Yrotation Xrotation
				JOINT RightAnkle
				{
					OFFSET -2.66027 -7.30903 0.00000
					CHANNELS 3 Zrotation Yrotation Xrotation
					JOINT RightToe
					{
						OFFSET -0.22981 -0.63138 2.03959
						CHANNELS 3 Zrotation Yrotation Xrotation
						End Site
						{
							OFFSET -0.00000 -0.00000 1.07060
						}
					}
				}
			}
		}
	}
	JOINT lowerback
	{
		OFFSET 0 0 0
		CHANNELS 3 Zrotation Yrotation Xrotation
		JOINT Chest
		{
			OFFSET -0.02651 1.86275 -0.11152
			CHANNELS 3 Zrotation Yrotation Xrotation
			JOINT Chest2
			{
				OFFSET 0.01019 1.86224 0.04087
				CHANNELS 3 Zrotation Yrotation Xrotation
				JOINT lowerneck
				{
					OFFSET 0 0 0
					CHANNELS 3 Zrotation Yrotation Xrotation
					JOINT Neck
					{
						OFFSET -0.01926 1.80512 0.08867
						CHANNELS 3 Zrotation Yrotation Xrotation
						JOINT Head
						{
							OFFSET 0.05516 1.76451 -0.38475
							CHANNELS 3 Zrotation Yrotation Xrotation
							End Site
							{
								OFFSET 0.01592 1.82587 -0.14001
							}
						}
					}
				}
				JOINT LeftCollar
				{
					OFFSET 0 0 0
					CHANNELS 3 Zrotation Yrotation Xrotation
					JOINT LeftShoulder
					{
						OFFSET 3.47116 1.51376 0.14491
CHANNELS 3 Zrotation Xrotation Yrotation
						JOINT LeftElbow
						{
OFFSET 0 -4.780950 0.000000
CHANNELS 3 Zrotation Xrotation Yrotation
							JOINT LeftWrist
							{
OFFSET 0 -3.586150 -0.000000
CHANNELS 3 Zrotation Xrotation Yrotation
								JOINT lhand
								{
									OFFSET 0 0 0
CHANNELS 3 Zrotation Xrotation Yrotation
									JOINT LFingers
									{
OFFSET 0 -0.659810 0.000000
CHANNELS 3 Zrotation Xrotation Yrotation
										End Site
										{
OFFSET 0 -0.531960 0.000000
										}
									}
								}
								JOINT LThumb
								{
OFFSET 0 0.000000 0.000000
CHANNELS 3 Zrotation Xrotation Yrotation
									End Site
									{
OFFSET 0 -0.540080 0.540080
									}
								}
							}
						}
					}
				}
				JOINT RightCollar
				{
					OFFSET 0 0 0
					CHANNELS 3 Zrotation Yrotation Xrotation
					JOINT RightShoulder
					{
						OFFSET -3.31725 1.61216 0.35156
CHANNELS 3 Zrotation Xrotation Yrotation
						JOINT RightElbow
						{
OFFSET 0 -4.489130 0.000000
CHANNELS 3 Zrotation Xrotation Yrotation
							JOINT RightWrist
							{
OFFSET 0 -3.705100 0.000000
CHANNELS 3 Zrotation Xrotation Yrotation
								JOINT rhand
								{
									OFFSET 0 0 0
CHANNELS 3 Zrotation Xrotation Yrotation
									JOINT RFingers
									{
OFFSET 0 -0.449140 0.000000
CHANNELS 3 Zrotation Xrotation Yrotation
										End Site
										{
OFFSET 0 -0.362110 0.000000
										}
									}
								}
								JOINT RThumb
								{
OFFSET 0 0.000000 0.000000
CHANNELS 3 Zrotation Xrotation Yrotation
									End Site
									{
OFFSET 0 -0.367630 0.367630
									}
								}
							}
						}
					}
				}
			}
		}
	}
}
MOTION
Frames: 12
Frame Time: 0.008333333333333333
-0.722500 18.652000 5.870900 -4.065200 -3.496600 0.011400 0.000000 0.000000 0.000000 -11.000900 -7.810500 0.026700 1.454600 7.623200 21.575400 1.893200 6.763700 -29.148000 8.155400 -16.232400 -53.120400 0.000000 0.000000 0.000000 0.000000 0.000000 0.000000 0.000000 0.000000 0.000000 -0.000000 -0.000000 0.000000 -0.000000 -0.000000 0.000000 1.919000 0.651200 1.490300 1.015600 0.955800 -2.263800 -0.071400 0.443600 -3.147300 -1.049900 -0.368600 -9.945300 3.031700 -1.084200 24.813300 1.106400 -0.278700 9.468400 -0.000000 0.000000 0.000000 -3.117400 13.356300 -25.841900 20.192700 -30.873800 5.629900 12.687800 -0.296300 28.064300 0.000000 0.000000 0.000000 -7.125000 0.000000 0.000000 -10.447000 1.735300 -10.300100 -0.000000 0.000000 0.000000 2.580400 17.830100 20.312900 -23.489900 -34.620100 -7.414700 -7.010700 16.306200 40.695400 0.000000 0.000000 0.000000 7.125000 0.000000 -0.000000 39.167400 66.920700 -22.043400
-0.722442 18.651671 5.872017 -4.074501 -3.511876 0.006661 0.000000 0.000000 0.000000 -10.993410 -7.791022 0.030643 1.455446 7.625351 21.581916 1.896480 6.756667 -29.165337 8.162515 -16.237463 -53.145815 0.000000 0.000000 0.000000 0.000000 0.000000 0.000000 0.000000 0.000000 0.000000 0.000000 0.000000 0.000000 0.000000 0.000000 0.000000 1.916114 0.662953 1.488578 1.026198 0.971046 -2.240660 -0.059525 0.451797 -3.122449 -1.102369 -0.366203 -10.009969 3.091026 -1.086926 24.889618 1.136414 -0.277298 9.508344 0.000000 0.000000 0.000000 -3.116346 13.299189 -25.925795 20.150501 -30.823233 5.608237 12.725968 -0.296919 28.107329 0.000000 0.000000 0.000000 -7.125000 0.000000 0.000000 -10.427295 1.687361 -10.289145 0.000000 0.000000 0.000000 2.603672 17.796508 20.262015 -23.480430 -34.610007 -7.409374 -6.985878 16.382695 40.735706 0.000000 0.000000 0.000000 7.125000 0.000000 0.000000 39.257033 66.943525 -22.120078
-0.722475 18.652275 5.873551 -4.091667 -3.484473 0.040697 0.000000 0.000000 0.000000 -10.969565 -7.822699 0.000892 1.456146 7.627180 21.587169 1.899927 6.752580 -29.185133 8.147340 -16.226574 -53.091571 0.000000 0.000000 0.000000 0.000000 0.000000 0.000000 0.000000 0.000000 0.000000 0.000000 0.000000 0.000000 0.000000 0.000000 0.000000 1.922923 0.656876 1.442891 1.034345 0.961982 -2.233622 -0.053964 0.447483 -3.089563 -1.098085 -0.357511 -10.033107 3.097655 -1.077948 24.924330 1.139343 -0.271516 9.524839 0.000000 0.000000 0.000000 -3.047711 13.243177 -26.169250 20.079333 -30.737806 5.571850 12.787252 -0.530302 28.135334 0.000000 0.000000 0.000000 -7.125000 0.000000 0.000000 -10.393113 1.651064 -10.261054 0.000000 0.000000 0.000000 2.645387 17.786498 20.201603 -23.473845 -34.602911 -7.405618 -6.962471 16.414425 40.857668 0.000000 0.000000 0.000000 7.125000 0.000000 0.000000 39.477104 67.027614 -22.333226
-0.723744 18.653357 5.875526 -4.098791 -3.444020 0.091213 0.000000 0.000000 0.000000 -10.938965 -7.818321 -0.065166 1.457063 7.629507 21.594222 1.889094 6.742415 -29.108897 8.173272 -16.245190 -53.184371 0.000000 0.000000 0.000000 0.000000 0.000000 0.000000 0.000000 0.000000 0.000000 0.000000 0.000000 0.000000 0.000000 0.000000 0.000000 1.880682 0.631482 1.418041 1.063989 0.927510 -2.257696 0.001741 0.431424 -3.102036 -1.107820 -0.333833 -10.044224 3.073207 -1.038326 25.002262 1.137586 -0.256120 9.553512 0.000000 0.000000 0.000000 -3.152245 13.325472 -25.989755 20.103350 -30.766665 5.584097 12.839388 -0.475178 28.142561 0.000000 0.000000 0.000000 -7.125000 0.000000 0.000000 -10.362904 1.636606 -10.232956 0.000000 0.000000 0.000000 2.585887 17.811945 20.272191 -23.446216 -34.573215 -7.389947 -7.205399 16.453138 40.899252 0.000000 0.000000 0.000000 7.125000 0.000000 0.000000 39.299730 67.131999 -22.310531
-0.724675 18.653308 5.876475 -4.135836 -3.424504 0.114975 0.000000 0.000000 0.000000 -10.872297 -7.765947 -0.119172 1.458109 7.632093 21.602138 1.891963 6.653607 -29.076082 8.163533 -16.238198 -53.149458 0.000000 0.000000 0.000000 0.000000 0.000000 0.000000 0.000000 0.000000 0.000000 0.000000 0.000000 0.000000 0.000000 0.000000 0.000000 1.902991 0.622433 1.418236 1.080846 0.916642 -2.265132 0.006900 0.425666 -3.109922 -1.168092 -0.328368 -10.033644 3.117344 -1.030717 25.046328 1.164504 -0.253173 9.567313 0.000000 0.000000 0.000000 -2.948294 13.137016 -26.712640 19.858012 -30.470799 5.459171 13.193419 -1.518379 28.024778 0.000000 0.000000 0.000000 -7.125000 0.000000 0.000000 -10.146542 1.703673 -9.999966 0.000000 0.000000 0.000000 2.583448 17.808270 20.263469 -23.398117 -34.521258 -7.362666 -7.202589 16.538183 40.884770 0.000000 0.000000 0.000000 7.125000 0.000000 0.000000 39.279142 67.120305 -22.287285
-0.725077 18.653176 5.876838 -4.129637 -3.387727 0.136671 0.000000 0.000000 0.000000 -10.844938 -7.673563 -0.196938 1.457762 7.631194 21.599282 1.880968 6.559534 -28.949549 8.167145 -16.240817 -53.162339 0.000000 0.000000 0.000000 0.000000 0.000000 0.000000 0.000000 0.000000 0.000000 0.000000 0.000000 0.000000 0.000000 0.000000 0.000000 1.895158 0.616425 1.453024 1.069953 0.909894 -2.304490 -0.000203 0.421678 -3.170217 -1.118511 -0.341649 -9.946503 3.058372 -1.046201 25.087934 1.134114 -0.262681 9.565353 0.000000 0.000000 0.000000 -2.724434 13.019060 -27.389542 19.641635 -30.208087 5.349821 13.513348 -2.369337 27.857734 0.000000 0.000000 0.000000 -7.125000 0.000000 0.000000 -9.946340 1.824368 -9.774528 0.000000 0.000000 0.000000 2.637155 17.916455 20.203952 -23.423862 -34.549030 -7.377280 -7.029457 16.500834 40.709759 0.000000 0.000000 0.000000 7.125000 0.000000 0.000000 39.171448 66.937134 -22.060177
-0.724386 18.654714 5.878439 -4.082744 -3.364012 0.168109 0.000000 0.000000 0.000000 -10.888908 -7.666556 -0.233621 1.453846 7.621365 21.569707 1.864432 6.607353 -28.868566 8.176988 -16.247904 -53.197533 0.000000 0.000000 0.000000 0.000000 0.000000 0.000000 0.000000 0.000000 0.000000 0.000000 0.000000 0.000000 0.000000 0.000000 0.000000 1.867893 0.620862 1.467378 1.032822 0.915228 -2.346587 -0.023712 0.423982 -3.221489 -0.962817 -0.364910 -9.892483 2.901361 -1.072748 25.155082 1.050620 -0.277626 9.578156 0.000000 0.000000 0.000000 -2.637504 13.067025 -27.464944 19.605969 -30.164688 5.331966 13.479687 -2.385867 27.776189 0.000000 0.000000 0.000000 -7.125000 0.000000 0.000000 -9.960617 1.910149 -9.773389 0.000000 0.000000 0.000000 2.694674 17.986833 20.159958 -23.438486 -34.564799 -7.385549 -6.893174 16.381651 40.760766 0.000000 0.000000 0.000000 7.125000 0.000000 0.000000 39.390732 66.934372 -22.197091
-0.724152 18.653273 5.881802 -4.017817 -3.382455 0.175718 0.000000 0.000000 0.000000 -10.977948 -7.702921 -0.188509 1.449246 7.609808 21.535076 1.876115 6.613674 -28.948758 8.172835 -16.244895 -53.182730 0.000000 0.000000 0.000000 0.000000 0.000000 0.000000 0.000000 0.000000 0.000000 0.000000 0.000000 0.000000 0.000000 0.000000 0.000000 1.789848 0.627988 1.459571 1.018517 0.921909 -2.356540 0.005027 0.428941 -3.228161 -0.897342 -0.362068 -9.845038 2.808516 -1.058782 25.170158 1.008825 -0.275420 9.573389 0.000000 0.000000 0.000000 -2.653782 13.135480 -27.338178 19.624618 -30.187470 5.341309 13.413786 -2.328969 27.732331 0.000000 0.000000 0.000000 -7.125000 0.000000 0.000000 -9.996646 1.963225 -9.800210 0.000000 0.000000 0.000000 2.698754 18.035621 20.203748 -23.441592 -34.568153 -7.387381 -7.220024 16.420611 40.755457 0.000000 0.000000 0.000000 7.125000 0.000000 0.000000 39.052280 67.028726 -22.063521
-0.724166 18.652584 5.884902 -3.986349 -3.393196 0.161612 0.000000 0.000000 0.000000 -11.022834 -7.691560 -0.141645 1.446783 7.603749 21.516848 1.884066 6.601507 -28.994227 8.180570 -16.250491 -53.210387 0.000000 0.000000 0.000000 0.000000 0.000000 0.000000 0.000000 0.000000 0.000000 0.000000 0.000000 0.000000 0.000000 0.000000 0.000000 1.749316 0.636707 1.458265 1.019740 0.932012 -2.338337 0.028619 0.435171 -3.209085 -0.945559 -0.343054 -9.799622 2.829507 -1.026467 25.142030 1.027689 -0.263036 9.554246 0.000000 0.000000 0.000000 -2.705984 13.140062 -27.172737 19.632801 -30.197418 5.345451 13.490989 -2.236045 27.702295 0.000000 0.000000 0.000000 -7.125000 0.000000 0.000000 -9.948866 1.982156 -9.748446 0.000000 0.000000 0.000000 2.694687 18.065229 20.275173 -23.475629 -34.604834 -7.406686 -7.826653 16.553891 40.820383 0.000000 0.000000 0.000000 7.125000 0.000000 0.000000 38.542892 67.261133 -21.937903
-0.723511 18.653733 5.886226 -4.027341 -3.389256 0.183709 0.000000 0.000000 0.000000 -10.968724 -7.660605 -0.174676 1.446537 7.603174 21.514959 1.878279 6.587774 -28.948534 8.170030 -16.242915 -53.172677 0.000000 0.000000 0.000000 0.000000 0.000000 0.000000 0.000000 0.000000 0.000000 0.000000 0.000000 0.000000 0.000000 0.000000 0.000000 1.801126 0.639456 1.449290 1.030954 0.937407 -2.344644 0.011001 0.436756 -3.209919 -0.955354 -0.347977 -9.786040 2.809401 -1.027126 25.172122 1.022548 -0.266318 9.562195 0.000000 0.000000 0.000000 -2.716314 13.167190 -27.141301 19.636396 -30.201748 5.347248 13.613799 -2.295295 27.664248 0.000000 0.000000 0.000000 -7.125000 0.000000 0.000000 -9.873658 2.002579 -9.668737 0.000000 0.000000 0.000000 2.694294 18.098762 20.274128 -23.502726 -34.633926 -7.422063 -8.138774 16.641618 40.843924 0.000000 0.000000 0.000000 7.125000 0.000000 0.000000 38.263138 67.373768 -21.854670
-0.722962 18.654500 5.887383 -4.015145 -3.386572 0.209860 0.000000 0.000000 0.000000 -10.973186 -7.649739 -0.212056 1.445970 7.601601 21.510365 1.874653 6.594135 -28.928255 8.173385 -16.245324 -53.184772 0.000000 0.000000 0.000000 0.000000 0.000000 0.000000 0.000000 0.000000 0.000000 0.000000 0.000000 0.000000 0.000000 0.000000 0.000000 1.799721 0.642481 1.413899 1.028754 0.940089 -2.327857 0.009931 0.438398 -3.172596 -0.964971 -0.341627 -9.864903 2.785169 -1.011090 25.232242 1.018098 -0.261433 9.598202 0.000000 0.000000 0.000000 -2.715829 13.153257 -27.156923 19.641825 -30.208340 5.349939 13.660277 -2.329606 27.613742 0.000000 0.000000 0.000000 -7.125000 0.000000 0.000000 -9.842570 2.046214 -9.629544 0.000000 0.000000 0.000000 2.688563 18.058582 20.301111 -23.497451 -34.628289 -7.419014 -8.434155 16.629694 40.769390 0.000000 0.000000 0.000000 7.125000 0.000000 0.000000 37.840419 67.407258 -21.613183
-0.721593 18.654047 5.891556 -3.978503 -3.378876 0.211951 0.000000 0.000000 0.000000 -11.033792 -7.696185 -0.178623 1.444725 7.598586 21.501280 1.879052 6.643588 -28.985626 8.184959 -16.253636 -53.226235 0.000000 0.000000 0.000000 0.000000 0.000000 0.000000 0.000000 0.000000 0.000000 0.000000 0.000000 0.000000 0.000000 0.000000 0.000000 1.773542 0.642348 1.376919 1.023882 0.937728 -2.316032 0.020245 0.438051 -3.139776 -1.009202 -0.326883 -9.850634 2.832425 -0.992693 25.213026 1.043947 -0.251992 9.588647 0.000000 0.000000 0.000000 -2.721015 13.162707 -27.140170 19.642856 -30.209684 5.350478 13.658179 -2.331484 27.699543 0.000000 0.000000 0.000000 -7.125000 0.000000 0.000000 -9.849813 1.961073 -9.652211 0.000000 0.000000 0.000000 2.724629 18.049956 20.197107 -23.486766 -34.616823 -7.412990 -8.358214 16.588924 40.673546 0.000000 0.000000 0.000000 7.125000 0.000000 0.000000 37.763345 67.311391 -21.484321
